<?xml version="1.0" standalone="no"?>
<!DOCTYPE svg PUBLIC "-//W3C//DTD SVG 20010904//EN"
 "http://www.w3.org/TR/2001/REC-SVG-20010904/DTD/svg10.dtd">
<svg version="1.0" xmlns="http://www.w3.org/2000/svg"
 width="980.000000pt" height="980.000000pt" viewBox="0 0 980.000000 980.000000"
 preserveAspectRatio="xMidYMid meet">

<g transform="translate(0.000000,980.000000) scale(0.100000,-0.100000)"
fill="#000000" stroke="none">
<path d="M4625 9794 c-22 -2 -96 -9 -165 -14 -806 -70 -1610 -353 -2290 -810
-431 -289 -855 -689 -1175 -1110 -192 -253 -339 -490 -485 -785 -271 -546
-432 -1112 -492 -1735 -20 -204 -17 -725 5 -930 65 -600 223 -1147 482 -1675
474 -967 1264 -1756 2230 -2230 555 -272 1081 -420 1725 -487 194 -20 726 -17
930 5 1277 140 2387 719 3225 1681 247 285 468 615 650 971 262 515 433 1073
499 1635 54 451 45 927 -25 1360 -212 1320 -935 2475 -2033 3247 -672 472
-1458 766 -2301 858 -140 16 -680 29 -780 19z m610 -464 c915 -75 1732 -400
2455 -976 160 -128 498 -462 631 -624 566 -689 902 -1491 1001 -2385 20 -186
17 -752 -5 -935 -114 -921 -469 -1732 -1059 -2415 -118 -136 -389 -402 -523
-513 -670 -552 -1461 -890 -2335 -997 -209 -26 -643 -31 -874 -11 -919 80
-1763 428 -2476 1021 -137 114 -406 381 -524 520 -583 686 -932 1485 -1042
2390 -22 180 -30 615 -15 812 69 909 397 1745 966 2458 184 232 460 508 690
691 690 548 1509 880 2370 958 180 16 574 19 740 6z"/>
<path d="M4755 7879 c-256 -25 -499 -113 -720 -262 -118 -80 -312 -274 -392
-392 -385 -570 -352 -1314 83 -1836 112 -134 255 -258 391 -337 34 -21 63 -39
63 -42 0 -3 -39 -16 -88 -29 -278 -75 -602 -227 -852 -399 -771 -528 -1244
-1376 -1287 -2305 l-6 -137 229 2 229 3 7 130 c49 961 657 1813 1555 2180 726
295 1577 222 2243 -193 700 -436 1137 -1175 1179 -1992 l6 -125 229 -3 229 -2
-7 147 c-27 613 -254 1213 -641 1699 -104 130 -334 360 -462 462 -205 162
-444 306 -669 403 -120 52 -353 132 -419 145 -19 3 -35 10 -35 15 0 5 4 9 8 9
25 0 230 150 315 230 436 411 591 1027 402 1596 -42 125 -104 250 -186 374
-79 121 -280 323 -399 401 -224 150 -468 235 -732 259 -126 11 -145 11 -273
-1z m360 -473 c82 -17 199 -58 270 -94 203 -101 409 -322 496 -531 140 -337
107 -704 -92 -1011 -67 -102 -228 -257 -334 -320 -183 -108 -343 -152 -550
-153 -311 -1 -570 111 -788 343 -207 219 -312 533 -278 825 31 271 126 464
320 655 174 171 354 261 598 300 78 12 272 5 358 -14z"/>
</g>
</svg>
